<svg width="27" height="14" viewBox="0 0 27 14" fill="none" xmlns="http://www.w3.org/2000/svg">
<path d="M1.15182 2.94082L10.5471 0.230936C12.0941 -0.212964 13.7433 -0.012123 15.1543 0.792014L19.2873 3.17958L25.3061 4.37336C25.7534 4.37335 26.1826 4.56037 26.4999 4.89361C26.8172 5.22685 26.997 5.67925 27 6.1521V9.73345C27 10.2084 26.8215 10.6638 26.5039 10.9996C26.1862 11.3355 25.7554 11.5241 25.3061 11.5241H24.1769C24.0659 12.2165 23.7266 12.845 23.2192 13.2982C22.7118 13.7514 22.0689 14 21.4046 14C20.7404 14 20.0975 13.7514 19.5901 13.2982C19.0826 12.845 18.7434 12.2165 18.6324 11.5241H8.36763C8.25664 12.2165 7.91736 12.845 7.40991 13.2982C6.90247 13.7514 6.25964 14 5.59536 14C4.93107 14 4.28824 13.7514 3.7808 13.2982C3.27336 12.845 2.93407 12.2165 2.82309 11.5241H1.69385C1.24461 11.5241 0.813776 11.3355 0.496119 10.9996C0.178459 10.6638 0 10.2084 0 9.73345V4.61212C0.00494385 4.24183 0.118368 3.88226 0.324648 3.58295C0.53093 3.28363 0.819921 3.05929 1.15182 2.94082ZM6.67378 2.59463V3.16764H7.46424L7.90464 2.22455L6.67378 2.59463ZM14.5784 1.85448C13.4921 1.24166 12.2331 1.06363 11.0326 1.35309H10.8068H10.6148L9.32748 1.72316L8.69511 3.07214H16.8369L14.5784 1.85448ZM21.3538 12.8015C21.6888 12.8015 22.0163 12.6964 22.2949 12.4997C22.5734 12.3029 22.7905 12.0233 22.9187 11.6961C23.0469 11.3689 23.0805 11.0088 23.0151 10.6615C22.9498 10.3141 22.7885 9.99503 22.5516 9.7446C22.3147 9.49417 22.0129 9.32362 21.6843 9.25453C21.3557 9.18544 21.0151 9.2209 20.7056 9.35643C20.3961 9.49196 20.1316 9.72147 19.9454 10.016C19.7593 10.3104 19.66 10.6566 19.66 11.0108C19.66 11.4857 19.8384 11.9412 20.1561 12.277C20.4738 12.6128 20.9046 12.8015 21.3538 12.8015ZM5.54454 12.8015C5.87955 12.8015 6.20704 12.6964 6.48559 12.4997C6.76415 12.3029 6.98125 12.0233 7.10946 11.6961C7.23766 11.3689 7.2712 11.0088 7.20585 10.6615C7.14049 10.3141 6.97916 9.99503 6.74228 9.7446C6.50538 9.49417 6.20357 9.32362 5.87499 9.25453C5.54642 9.18544 5.20584 9.2209 4.89633 9.35643C4.58682 9.49196 4.32228 9.72147 4.13616 10.016C3.95003 10.3104 3.85069 10.6566 3.85069 11.0108C3.85069 11.4857 4.02915 11.9412 4.34681 12.277C4.66447 12.6128 5.0953 12.8015 5.54454 12.8015ZM1.0276 6.74899H1.59222C1.74197 6.74899 1.88558 6.81188 1.99146 6.92382C2.09735 7.03575 2.15684 7.18758 2.15684 7.34588C2.15684 7.50419 2.09735 7.65601 1.99146 7.76795C1.88558 7.87989 1.74197 7.94277 1.59222 7.94277H1.0276V9.73345C1.0276 9.89175 1.08709 10.0436 1.19297 10.1555C1.29886 10.2675 1.44247 10.3303 1.59222 10.3303H2.8005C2.94459 9.6768 3.29363 9.09402 3.79082 8.67683C4.28802 8.25964 4.90412 8.03257 5.5389 8.03257C6.17367 8.03257 6.78977 8.25964 7.28697 8.67683C7.78416 9.09402 8.1332 9.6768 8.27729 10.3303H18.6098C18.7539 9.6768 19.1029 9.09402 19.6001 8.67683C20.0973 8.25964 20.7134 8.03257 21.3482 8.03257C21.983 8.03257 22.5991 8.25964 23.0963 8.67683C23.5934 9.09402 23.9425 9.6768 24.0866 10.3303H25.3061C25.4559 10.3303 25.5995 10.2675 25.7054 10.1555C25.8113 10.0436 25.8708 9.89175 25.8708 9.73345V7.94277H25.3061C25.1564 7.94277 25.0128 7.87989 24.9069 7.76795C24.801 7.65601 24.7415 7.50419 24.7415 7.34588C24.7415 7.18758 24.801 7.03575 24.9069 6.92382C25.0128 6.81188 25.1564 6.74899 25.3061 6.74899H25.8708V6.1521C25.8666 6.06523 25.8458 5.98016 25.8096 5.90201C25.7735 5.82386 25.7228 5.75425 25.6605 5.69737C25.5983 5.64049 25.5258 5.59751 25.4474 5.57103C25.3691 5.54454 25.2864 5.5351 25.2045 5.54327L19.0954 4.36142H6.10916C5.95941 4.36142 5.8158 4.29854 5.70991 4.1866C5.60403 4.07466 5.54454 3.92284 5.54454 3.76453V2.91695L1.44542 4.11073C1.33641 4.14071 1.23838 4.20448 1.16393 4.29383C1.08947 4.38317 1.04199 4.49402 1.0276 4.61212V6.74899ZM9.49686 7.94277H17.4015C17.5513 7.94277 17.6949 8.00566 17.8008 8.1176C17.9066 8.22954 17.9661 8.38136 17.9661 8.53966C17.9661 8.69797 17.9066 8.84979 17.8008 8.96173C17.6949 9.07367 17.5513 9.13656 17.4015 9.13656H9.49686C9.34712 9.13656 9.2035 9.07367 9.09762 8.96173C8.99173 8.84979 8.93225 8.69797 8.93225 8.53966C8.93225 8.38136 8.99173 8.22954 9.09762 8.1176C9.2035 8.00566 9.34712 7.94277 9.49686 7.94277Z" fill="#1686C1"/>
</svg>
