<svg width="22" height="16" viewBox="0 0 22 16" fill="none" xmlns="http://www.w3.org/2000/svg">
<path d="M17.8823 6.21177C16.1882 6.21177 14.7764 4.8 14.7764 3.10588C14.7764 1.41176 16.1882 0 17.8823 0C19.5764 0 20.9882 1.41176 20.9882 3.10588C20.9882 4.8 19.5764 6.21177 17.8823 6.21177ZM17.8823 0.941176C16.7058 0.941176 15.7176 1.92941 15.7176 3.10588C15.7176 4.28235 16.7058 5.27059 17.8823 5.27059C19.0588 5.27059 20.047 4.28235 20.047 3.10588C20.047 1.92941 19.0588 0.941176 17.8823 0.941176ZM6.30583 10.0235C5.03524 10.0235 4.42348 9.08235 4.2823 8.61176L4.18818 8.28235L9.17642 4.61176C7.76465 3.90588 6.07054 3.76471 4.79995 3.76471C4.5176 3.76471 4.04701 3.76471 3.57642 3.81176C2.72936 3.95294 1.97642 3.34118 1.83524 2.49412C1.69407 1.64706 2.30583 0.847059 3.15289 0.752941C3.57642 0.658824 10.7294 -0.141177 13.6941 4.65882C13.6941 4.70588 13.7411 4.75294 13.8352 4.84706C16.4235 8.75294 16.3294 9.27059 15.8588 9.6L15.8117 9.64706C15.7176 9.69412 15.6235 9.69412 15.5294 9.69412C15.1999 9.69412 14.8705 9.50588 14.1176 9.08235C13.2235 8.56471 11.9529 7.81176 10.9176 7.71765H10.7294C9.8823 7.71765 9.03524 8.42353 8.2823 8.98824C7.57642 9.50588 6.96465 9.97647 6.30583 10.0235ZM5.36465 8.61176C5.50583 8.84706 5.78818 9.08235 6.30583 9.08235C6.63524 9.08235 7.19995 8.61176 7.7176 8.18824C8.65877 7.43529 9.74113 6.58823 11.0117 6.72941C12.2352 6.82353 13.5999 7.62353 14.5882 8.23529C14.6823 8.28235 14.8235 8.37647 14.9176 8.42353C14.6823 7.90588 14.1176 6.96471 13.0352 5.31765C12.9411 5.17647 12.8941 5.08235 12.8941 5.08235C11.0117 2.02353 7.05877 1.6 4.84701 1.6C3.90583 1.6 3.34113 1.69412 3.29407 1.69412C2.9176 1.74118 2.6823 2.02353 2.72936 2.4C2.77642 2.77647 3.05877 3.01176 3.43524 2.96471H3.52936C4.04701 2.82353 4.5176 2.82353 4.84701 2.82353C6.39995 2.82353 8.65877 3.05882 10.3529 4.18824L10.9176 4.56471L5.36465 8.61176Z" fill="#1686C1"/>
<path d="M16.7529 12.5649C15.0118 12.5649 14.2118 11.8119 13.5059 11.106C12.8941 10.4943 12.3765 10.0237 11.2471 10.0237C10.0706 10.0237 9.50588 10.5884 8.84706 11.2002C8.14118 11.859 7.38824 12.5649 5.97647 12.5649C4.65882 12.5649 3.85882 11.906 3.10588 11.2943C2.30588 10.6355 1.55294 10.0237 0 10.0237V9.08252C1.88235 9.08252 2.82353 9.88252 3.71765 10.5884C4.42353 11.1531 4.98824 11.6237 5.97647 11.6237C7.01176 11.6237 7.52941 11.106 8.18824 10.4943C8.89412 9.83546 9.74118 9.08252 11.2471 9.08252C12.7529 9.08252 13.5059 9.7884 14.1647 10.4472C14.8235 11.106 15.4353 11.6237 16.7529 11.6237C18.0706 11.6237 18.4471 11.1531 18.9176 10.4943C19.4353 9.83546 20 9.08252 21.6471 9.08252V10.0237C20.4706 10.0237 20.1412 10.4943 19.6706 11.059C19.1529 11.7649 18.4941 12.5649 16.7529 12.5649Z" fill="#1686C1"/>
<path d="M16.7529 15.9999C15.0118 15.9999 14.2118 15.247 13.5059 14.5411C12.8941 13.9293 12.3765 13.4588 11.2471 13.4588C10.0706 13.4588 9.50588 14.0235 8.84706 14.6352C8.14118 15.294 7.38824 15.9999 5.97647 15.9999C4.65882 15.9999 3.85882 15.3411 3.10588 14.7293C2.30588 14.0705 1.55294 13.4588 0 13.4588V12.5176C1.88235 12.5176 2.82353 13.3176 3.71765 14.0235C4.42353 14.5882 4.98824 15.0588 5.97647 15.0588C7.01176 15.0588 7.52941 14.5411 8.18824 13.9293C8.89412 13.2705 9.74118 12.5176 11.2471 12.5176C12.7529 12.5176 13.5059 13.2235 14.1647 13.8823C14.8235 14.5411 15.4353 15.0588 16.7529 15.0588C18.0706 15.0588 18.4471 14.5882 18.9176 13.9293C19.4353 13.2705 20 12.5176 21.6471 12.5176V13.4588C20.4706 13.4588 20.1412 13.9293 19.6706 14.494C19.1529 15.1999 18.4941 15.9999 16.7529 15.9999Z" fill="#1686C1"/>
</svg>
