<svg width="21" height="12" viewBox="0 0 21 12" fill="none" xmlns="http://www.w3.org/2000/svg">
<g clip-path="url(#clip0_1156_5369)">
<path d="M1.53102 1.77693H1.71074C1.78691 1.77693 1.86008 1.78749 1.93324 1.79732V1.37189C1.93324 0.615602 2.6129 0.000137861 3.44847 0.000137861H4.46626C5.30183 0.000137861 5.98149 0.615574 5.98149 1.37189V3.20839H15.0187V1.37158C15.0187 1.00514 15.1763 0.660705 15.4624 0.401713C15.7487 0.142583 16.1291 -0.000137662 16.5339 9.96377e-08H17.5517C18.3871 0.000137861 19.0668 0.615437 19.0668 1.37175V1.79732C19.1401 1.78749 19.2131 1.77693 19.2893 1.77693H19.4689C20.3132 1.77693 21 2.39873 21 3.16298V8.38704C21 9.15143 20.3132 9.77309 19.469 9.77309H19.2893C19.2131 9.77309 19.1401 9.76254 19.0668 9.7527V10.1781C19.0668 10.9344 18.3871 11.5499 17.5515 11.5499L16.5337 11.5497C15.6983 11.5496 15.0187 10.9343 15.0187 10.178V8.34177H5.98152V10.1781C5.98152 10.9346 5.30187 11.5499 4.46629 11.5499L3.44847 11.55C2.6129 11.55 1.93324 10.9346 1.93324 10.1783V9.7527C1.86008 9.76254 1.78691 9.77309 1.71074 9.77309H1.53105C0.686867 9.77309 2.47955e-05 9.15143 2.47955e-05 8.38704V3.16298C-5.72205e-06 2.39873 0.686836 1.77693 1.53102 1.77693ZM19.2893 8.58848H19.4689C19.5916 8.58848 19.6914 8.49811 19.6914 8.38704V3.16298C19.6914 3.05192 19.5916 2.96155 19.4689 2.96155H19.2893C19.1666 2.96155 19.0668 3.05192 19.0668 3.16298V8.38704C19.0668 8.49808 19.1666 8.58848 19.2893 8.58848ZM16.3272 10.178C16.3272 10.2811 16.4198 10.3651 16.5337 10.3651L17.5515 10.3652C17.6656 10.3652 17.7582 10.2812 17.7582 10.1781V1.37175C17.7582 1.26865 17.6656 1.18464 17.5517 1.18464H16.5339C16.4593 1.18464 16.4102 1.21892 16.3877 1.23944C16.365 1.25983 16.3272 1.30422 16.3272 1.37161V10.178ZM8.54281 7.15716C8.54281 7.15716 8.66835 7.15716 8.81681 7.15716C8.96521 7.15716 9.10427 7.15716 9.10427 7.15716H10.2193C10.2193 7.15716 10.3515 7.15716 10.5 7.15716C10.6484 7.15716 10.7808 7.15716 10.7808 7.15716H11.8959C11.8959 7.15716 12.0245 7.15716 12.1729 7.15716C12.3213 7.15716 12.4573 7.15716 12.4573 7.15716H15.0187V4.393H12.4573C12.4573 4.393 12.3093 4.393 12.1609 4.393C12.0124 4.393 11.8959 4.393 11.8959 4.393H10.7808C10.7808 4.393 10.6633 4.393 10.5149 4.393C10.3665 4.393 10.2193 4.393 10.2193 4.393H9.10427C9.10427 4.393 8.98167 4.393 8.83327 4.393C8.68481 4.393 8.54281 4.393 8.54281 4.393H5.98149V7.15716H8.54281ZM3.24177 10.1783C3.24177 10.2814 3.33441 10.3654 3.44845 10.3654L4.46626 10.3652C4.58015 10.3652 4.67294 10.2814 4.67294 10.1781V1.37189C4.67294 1.26865 4.5803 1.18478 4.46626 1.18478H3.44845C3.33441 1.18478 3.24177 1.26879 3.24177 1.37189V10.1783ZM1.30852 8.38704C1.30852 8.49811 1.40834 8.58848 1.53102 8.58848H1.71074C1.83342 8.58848 1.93324 8.49811 1.93324 8.38704V3.16298C1.93324 3.05192 1.83342 2.96155 1.71074 2.96155H1.53105C1.40837 2.96155 1.30855 3.05192 1.30855 3.16298L1.30852 8.38704Z" fill="#1686C1"/>
</g>
<defs>
<clipPath id="clip0_1156_5369">
<rect width="21" height="11.55" fill="white" transform="matrix(-1 0 0 1 21 0)"/>
</clipPath>
</defs>
</svg>
