<svg width="16" height="19" viewBox="0 0 16 19" fill="none" xmlns="http://www.w3.org/2000/svg">
<path d="M12.8 0C11.9513 0 11.1374 0.33363 10.5373 0.927495C9.93714 1.52136 9.6 2.32681 9.6 3.16667H0.4C0.293913 3.16667 0.192172 3.20837 0.117157 3.2826C0.0421428 3.35684 0 3.45752 0 3.5625V5.54167C0.00141263 7.08327 0.570977 8.57144 1.60192 9.72718C2.63286 10.8829 4.05438 11.6269 5.6 11.8196V17.4167H3.6C3.49391 17.4167 3.39217 17.4584 3.31716 17.5326C3.24214 17.6068 3.2 17.7075 3.2 17.8125V18.6042C3.2 18.7091 3.24214 18.8098 3.31716 18.8841C3.39217 18.9583 3.49391 19 3.6 19H9.2C9.30609 19 9.40783 18.9583 9.48284 18.8841C9.55786 18.8098 9.6 18.7091 9.6 18.6042V17.8125C9.6 17.7075 9.55786 17.6068 9.48284 17.5326C9.40783 17.4584 9.30609 17.4167 9.2 17.4167H7.2V11.8196C8.60802 11.6429 9.91674 11.008 10.9203 10.0149C11.9239 9.02177 12.5654 7.72668 12.744 6.33333H12.8C13.6487 6.33333 14.4626 5.9997 15.0627 5.40584C15.6629 4.81197 16 4.00652 16 3.16667C16 2.32681 15.6629 1.52136 15.0627 0.927495C14.4626 0.33363 13.6487 0 12.8 0V0ZM6.4 10.2917C5.12696 10.2917 3.90606 9.79122 3.00589 8.90042C2.10571 8.00963 1.6 6.80145 1.6 5.54167V4.75H11.2V5.54167C11.2 6.80145 10.6943 8.00963 9.79411 8.90042C8.89394 9.79122 7.67304 10.2917 6.4 10.2917Z" fill="#1686C1"/>
</svg>
