<svg width="18" height="13" viewBox="0 0 18 13" fill="none" xmlns="http://www.w3.org/2000/svg">
<path fill-rule="evenodd" clip-rule="evenodd" d="M18 3.43944C15.5953 1.22112 12.3997 0 9.00045 0C5.60028 0 2.40467 1.22112 0 3.43944L1.28552 4.62533C5.54028 0.701977 12.4597 0.701977 16.7145 4.62533L18 3.43944ZM15.429 5.81123C11.8842 2.54205 6.11576 2.54205 2.57104 5.81123L3.85656 6.99713C6.69216 4.38128 11.3078 4.38128 14.1434 6.99713L15.429 5.81123ZM12.857 8.18386C11.827 7.2328 10.4569 6.70946 9.00045 6.70946C7.54311 6.70946 6.17304 7.2328 5.14299 8.18386L6.42851 9.36976C7.80312 8.10251 10.1969 8.10251 11.5715 9.36976L12.857 8.18386ZM9.96414 10.8526C10.4969 11.344 10.4969 12.1399 9.96414 12.6314C9.43139 13.1229 8.56861 13.1229 8.03586 12.6314C7.50311 12.1399 7.50311 11.344 8.03586 10.8526C8.56861 10.3611 9.43139 10.3611 9.96414 10.8526Z" fill="#1686C1"/>
</svg>
