<svg width="16" height="16" viewBox="0 0 16 16" fill="none" xmlns="http://www.w3.org/2000/svg">
<path d="M14.6665 4.00004V5.61337C14.6665 6.66671 13.9998 7.33337 12.9465 7.33337H10.6665V2.67337C10.6665 1.93337 11.2732 1.33337 12.0132 1.33337C12.7398 1.34004 13.4065 1.63337 13.8865 2.11337C14.3665 2.60004 14.6665 3.26671 14.6665 4.00004Z" stroke="white" stroke-width="1.5" stroke-miterlimit="10" stroke-linecap="round" stroke-linejoin="round"/>
<path d="M1.3335 4.66671V14C1.3335 14.5534 1.96017 14.8667 2.40017 14.5334L3.54016 13.68C3.80683 13.48 4.18017 13.5067 4.42017 13.7467L5.52683 14.86C5.78683 15.12 6.2135 15.12 6.4735 14.86L7.5935 13.74C7.82683 13.5067 8.20016 13.48 8.46016 13.68L9.60016 14.5334C10.0402 14.86 10.6668 14.5467 10.6668 14V2.66671C10.6668 1.93337 11.2668 1.33337 12.0002 1.33337H4.66683H4.00016C2.00016 1.33337 1.3335 2.52671 1.3335 4.00004V4.66671Z" stroke="white" stroke-width="1.5" stroke-miterlimit="10" stroke-linecap="round" stroke-linejoin="round"/>
<path d="M4.1665 6.66663H7.83317" stroke="white" stroke-width="1.5" stroke-linecap="round" stroke-linejoin="round"/>
<path d="M6 8.50004V4.83337" stroke="white" stroke-width="1.5" stroke-linecap="round" stroke-linejoin="round"/>
</svg>
