<svg width="16" height="16" viewBox="0 0 16 16" fill="none" xmlns="http://www.w3.org/2000/svg">
<path d="M13.6668 7.53337V4.69338C13.6668 2.00671 13.0402 1.33337 10.5202 1.33337H5.48016C2.96016 1.33337 2.3335 2.00671 2.3335 4.69338V12.2C2.3335 13.9734 3.30684 14.3934 4.48684 13.1267L4.49349 13.12C5.04016 12.54 5.87349 12.5867 6.34682 13.22L7.02016 14.12" stroke="white" stroke-width="1.5" stroke-linecap="round" stroke-linejoin="round"/>
<path d="M5.3335 4.66663H10.6668" stroke="white" stroke-width="1.5" stroke-linecap="round" stroke-linejoin="round"/>
<path d="M6 7.33337H10" stroke="white" stroke-width="1.5" stroke-linecap="round" stroke-linejoin="round"/>
<path d="M12.1405 9.84685L9.78052 12.2069C9.68719 12.3002 9.60051 12.4735 9.58051 12.6002L9.45384 13.5002C9.40718 13.8269 9.63385 14.0535 9.96052 14.0069L10.8605 13.8802C10.9872 13.8602 11.1672 13.7735 11.2539 13.6802L13.6139 11.3202C14.0205 10.9135 14.2139 10.4402 13.6139 9.8402C13.0205 9.24686 12.5472 9.44018 12.1405 9.84685Z" stroke="white" stroke-width="1.5" stroke-miterlimit="10" stroke-linecap="round" stroke-linejoin="round"/>
<path d="M11.7993 10.1869C11.9993 10.9069 12.5593 11.4669 13.2793 11.6669" stroke="white" stroke-width="1.5" stroke-miterlimit="10" stroke-linecap="round" stroke-linejoin="round"/>
</svg>
