<svg width="16" height="16" viewBox="0 0 16 16" fill="none" xmlns="http://www.w3.org/2000/svg">
<path d="M9.50765 10.6653H6.17432" stroke="white" stroke-width="1.3" stroke-miterlimit="10" stroke-linecap="round" stroke-linejoin="round"/>
<path d="M8.43997 1.67874L8.41997 1.7254L6.48664 6.21207H4.58664C4.13331 6.21207 3.69997 6.3054 3.30664 6.47207L4.47331 3.6854L4.49997 3.61874L4.54664 3.51207C4.55997 3.47207 4.57331 3.43207 4.59331 3.39874C5.46664 1.37874 6.45331 0.918737 8.43997 1.67874Z" stroke="white" stroke-width="1.3" stroke-linecap="round" stroke-linejoin="round"/>
<path d="M12.0335 6.34544C11.7335 6.25211 11.4135 6.21211 11.0935 6.21211H6.48682L8.42015 1.72544L8.44015 1.67877C8.54015 1.71211 8.63348 1.75877 8.73348 1.79877L10.2068 2.41877C11.0268 2.75877 11.6001 3.11211 11.9468 3.53877C12.0135 3.61877 12.0668 3.69211 12.1135 3.77877C12.1735 3.87211 12.2201 3.96544 12.2468 4.06544C12.2735 4.12544 12.2935 4.18544 12.3068 4.23877C12.4868 4.79877 12.3801 5.48544 12.0335 6.34544Z" stroke="white" stroke-width="1.3" stroke-linecap="round" stroke-linejoin="round"/>
<path d="M14.348 9.46555V10.7656C14.348 10.8989 14.3413 11.0322 14.3346 11.1656C14.208 13.4922 12.908 14.6656 10.4413 14.6656H5.24131C5.08131 14.6656 4.92131 14.6522 4.76798 14.6322C2.64798 14.4922 1.51464 13.3589 1.37464 11.2389C1.35464 11.0856 1.34131 10.9256 1.34131 10.7656V9.46555C1.34131 8.12555 2.15464 6.97222 3.31464 6.47222C3.71464 6.30555 4.14131 6.21222 4.59464 6.21222H11.1013C11.428 6.21222 11.748 6.25889 12.0413 6.34555C13.368 6.75222 14.348 7.99222 14.348 9.46555Z" stroke="white" stroke-width="1.3" stroke-linecap="round" stroke-linejoin="round"/>
<path d="M4.4735 3.68542L3.30683 6.47209C2.14683 6.97209 1.3335 8.12542 1.3335 9.46542V7.51209C1.3335 5.61876 2.68016 4.03876 4.4735 3.68542Z" stroke="white" stroke-width="1.3" stroke-linecap="round" stroke-linejoin="round"/>
<path d="M14.3457 7.51179V9.46512C14.3457 7.99846 13.3724 6.75179 12.0391 6.35179C12.3857 5.48512 12.4857 4.80512 12.3191 4.23846C12.3057 4.17846 12.2857 4.11846 12.2591 4.06512C13.4991 4.70512 14.3457 6.01846 14.3457 7.51179Z" stroke="white" stroke-width="1.3" stroke-linecap="round" stroke-linejoin="round"/>
</svg>
