<svg width="16" height="16" viewBox="0 0 16 16" fill="none" xmlns="http://www.w3.org/2000/svg">
<path d="M11.8341 4.70002C11.6741 4.67335 11.5074 4.66669 11.3341 4.66669H4.66744C4.48077 4.66669 4.30077 4.68003 4.12744 4.70669C4.22077 4.52003 4.35411 4.34671 4.51411 4.18671L6.68078 2.01337C7.59411 1.10671 9.07411 1.10671 9.98744 2.01337L11.1541 3.19335C11.5808 3.61335 11.8074 4.14669 11.8341 4.70002Z" stroke="white" stroke-width="1.3" stroke-linecap="round" stroke-linejoin="round"/>
<path d="M5.99984 12.6667C5.99984 13.1667 5.85984 13.64 5.61317 14.04C5.15317 14.8133 4.3065 15.3333 3.33317 15.3333C2.35984 15.3333 1.51317 14.8133 1.05317 14.04C0.806504 13.64 0.666504 13.1667 0.666504 12.6667C0.666504 11.1933 1.85984 10 3.33317 10C4.8065 10 5.99984 11.1933 5.99984 12.6667Z" stroke="white" stroke-width="1.3" stroke-miterlimit="10" stroke-linecap="round" stroke-linejoin="round"/>
<path d="M4.32749 12.653H2.34082" stroke="white" stroke-width="1.3" stroke-miterlimit="10" stroke-linecap="round" stroke-linejoin="round"/>
<path d="M3.33301 11.6797V13.673" stroke="white" stroke-width="1.3" stroke-miterlimit="10" stroke-linecap="round" stroke-linejoin="round"/>
<path d="M14.6668 7.99996V11.3333C14.6668 13.3333 13.3335 14.6666 11.3335 14.6666H5.08683C5.2935 14.4933 5.4735 14.28 5.6135 14.04C5.86016 13.64 6.00016 13.1666 6.00016 12.6666C6.00016 11.1933 4.80683 9.99996 3.3335 9.99996C2.5335 9.99996 1.82016 10.3533 1.3335 10.9066V7.99996C1.3335 6.18663 2.42683 4.91996 4.12683 4.70662C4.30016 4.67996 4.48016 4.66663 4.66683 4.66663H11.3335C11.5068 4.66663 11.6735 4.67328 11.8335 4.69995C13.5535 4.89995 14.6668 6.17329 14.6668 7.99996Z" stroke="white" stroke-width="1.3" stroke-linecap="round" stroke-linejoin="round"/>
<path d="M14.6668 8.33337H12.6668C11.9335 8.33337 11.3335 8.93337 11.3335 9.66671C11.3335 10.4 11.9335 11 12.6668 11H14.6668" stroke="white" stroke-width="1.3" stroke-linecap="round" stroke-linejoin="round"/>
</svg>
