<svg width="1512" height="988" viewBox="0 0 1512 988" fill="none" xmlns="http://www.w3.org/2000/svg">
<g clip-path="url(#clip0_420_39150)">
<rect width="1512" height="988" fill="#F3F8FC"/>
<path opacity="0.09" fill-rule="evenodd" clip-rule="evenodd" d="M0 420.332L63 372.028C126 325.92 234.675 296.534 360.675 360.207C486.675 423.881 630 493.015 756 508.385C882 523.754 1089.9 526.007 1215.9 446.964C1341.9 380.169 1340.32 364.046 1409.62 341.781L1463.17 322.587L1512 308V989H1449C1386 989 1260 989 1134 989C1008 989 882 989 756 989C630 989 504 989 378 989C252 989 126 989 63 989H0V420.332Z" fill="url(#paint0_linear_420_39150)"/>
</g>
<defs>
<linearGradient id="paint0_linear_420_39150" x1="-830.025" y1="-140.192" x2="1638.53" y2="344.337" gradientUnits="userSpaceOnUse">
<stop offset="0.216134" stop-color="#6768C0"/>
<stop offset="1" stop-color="#EF6687"/>
</linearGradient>
<clipPath id="clip0_420_39150">
<rect width="1512" height="988" fill="white"/>
</clipPath>
</defs>
</svg>
