<svg width="40" height="26" viewBox="0 0 40 26" fill="none" xmlns="http://www.w3.org/2000/svg">
<g clip-path="url(#clip0_613_3187)">
<path fill-rule="evenodd" clip-rule="evenodd" d="M-4.03027 3C-4.03027 1.34315 -2.68713 0 -1.03027 0H40.9697C42.6266 0 43.9697 1.34315 43.9697 3V29C43.9697 30.6569 42.6266 32 40.9697 32H-1.03027C-2.68713 32 -4.03027 30.6569 -4.03027 29V3Z" fill="white"/>
<path fill-rule="evenodd" clip-rule="evenodd" d="M-4.03027 4C-4.03027 1.79086 -2.23941 0 -0.0302734 0H39.9697C42.1789 0 43.9697 1.79086 43.9697 4V7.61905H-4.03027V4Z" fill="#4095DB"/>
<path fill-rule="evenodd" clip-rule="evenodd" d="M-4.03027 24.3789H43.9697V27.998C43.9697 30.2071 42.1789 31.998 39.9697 31.998H-0.0302744C-2.23941 31.998 -4.03027 30.2071 -4.03027 27.998V24.3789Z" fill="#F4B662"/>
<path fill-rule="evenodd" clip-rule="evenodd" d="M25.392 11.7992C24.9626 11.6214 24.2873 11.4275 23.4461 11.4275C21.2992 11.4275 19.7879 12.6296 19.7753 14.3507C19.7617 15.6237 20.8538 16.3338 21.6771 16.757C22.5233 17.1907 22.8076 17.4683 22.8042 17.8561C22.7984 18.4493 22.1288 18.7211 21.5045 18.7211C20.635 18.7211 20.1731 18.5873 19.459 18.2566L19.1796 18.1156L18.876 20.0982C19.3823 20.3449 20.3211 20.5591 21.2953 20.5703C23.577 20.5703 25.0596 19.3829 25.077 17.5449C25.0848 16.5354 24.5062 15.77 23.253 15.1383C22.4941 14.7277 22.0283 14.4556 22.0337 14.0399C22.0342 13.6717 22.4272 13.2777 23.2777 13.2777C23.988 13.2657 24.5022 13.4379 24.9029 13.6179L25.0979 13.7193L25.392 11.7992ZM15.3433 20.4375L16.7018 11.5803H18.8733L17.5149 20.4375H15.3433ZM29.1483 14.8252C29.1483 14.8252 28.4632 16.7917 28.2832 17.3008H30.086C30.0002 16.858 29.5835 14.7439 29.5835 14.7439L29.4369 13.98C29.3789 14.1556 29.298 14.3883 29.2365 14.5652C29.1817 14.7228 29.1423 14.8361 29.1483 14.8252ZM30.9622 11.5901H29.284C28.7634 11.5901 28.3738 11.7468 28.1458 12.3243L24.9209 20.4414H27.2017C27.2017 20.4414 27.5738 19.3494 27.6583 19.1098C27.7752 19.1098 28.3268 19.1108 28.9114 19.1119L28.9121 19.1119C29.5711 19.1131 30.2721 19.1144 30.4397 19.1144C30.5048 19.4235 30.7041 20.4414 30.7041 20.4414H32.7196L30.9622 11.5901ZM13.5214 11.5916L11.396 17.63L11.1683 16.4026C11.1682 16.4023 11.1681 16.4019 11.1681 16.4016C11.1681 16.4019 11.1682 16.4021 11.1683 16.4023L10.4073 12.3326C10.276 11.7713 9.89449 11.6049 9.4229 11.5853H5.92103L5.89209 11.7688C6.74403 11.9982 7.50584 12.329 8.17347 12.7404L10.1047 20.4336L12.4029 20.4321L15.8227 11.5916H13.5214Z" fill="#0071CE"/>
</g>
<defs>
<clipPath id="clip0_613_3187">
<rect x="0.969727" width="38.5455" height="25.697" rx="4" fill="white"/>
</clipPath>
</defs>
</svg>
