<svg width="100" height="16" viewBox="0 0 100 16" fill="none" xmlns="http://www.w3.org/2000/svg">
<path d="M17.2339 5.32001L12.12 4.81797L9.94406 0.502037C9.83553 0.200954 9.39987 0 9.07351 0C8.74715 0 8.3115 0.200954 8.20296 0.502037L6.02702 4.81797L0.913113 5.32001C0.478217 5.32001 0.26039 5.62109 0.0425632 5.92217C-0.0659695 6.22326 0.0425635 6.62516 0.26039 6.82542L4.06901 10.0379L2.98063 14.7557C2.8721 15.0568 3.08917 15.4587 3.41553 15.659C3.63336 15.8592 3.85118 15.96 3.95972 15.96C4.17755 15.96 4.28608 15.96 4.39461 15.8599L8.96449 13.4506L13.4258 15.8599C13.7521 16.0609 14.1878 16.0609 14.5141 15.7598C14.8405 15.5588 14.949 15.1576 14.949 14.8565L13.8607 10.1387L17.6693 6.92625C17.9956 6.7253 18.1042 6.32408 17.8871 6.023C17.8871 5.62109 17.5607 5.42014 17.2344 5.32001L17.2339 5.32001Z" fill="#1686C1"/>
<path d="M36.319 5.35351L31.7733 4.84831L29.8392 0.505199C29.7427 0.20222 29.3554 0 29.0653 0C28.6788 0 28.388 0.20222 28.2915 0.505199L26.3574 4.84831L21.8117 5.35351C21.4251 5.35351 21.2315 5.65649 21.0378 5.95947C20.9414 6.26245 21.0378 6.66689 21.2315 6.8684L24.6169 10.1011L23.6495 14.8486C23.553 15.1516 23.7459 15.5561 24.036 15.7576C24.2297 15.8583 24.3261 15.9598 24.5197 15.9598C24.7134 15.9598 24.8098 15.9598 24.9063 15.859L28.9684 13.4346L32.934 15.859C33.2241 16.0613 33.6114 16.0613 33.9015 15.7583C34.1916 15.5561 34.288 15.1523 34.288 14.8493L33.3206 10.1018L36.706 6.86911C36.9961 6.66689 37.0926 6.26315 36.8996 5.96017C36.9968 5.65649 36.7067 5.45427 36.3194 5.35352L36.319 5.35351Z" fill="#1686C1"/>
<path d="M58.3507 5.55573H58.2428L53.1585 5.05053L50.9951 0.707421C50.7786 0.202221 50.4534 0 50.021 0C49.5886 0 49.2634 0.202222 49.1555 0.505201L46.9921 4.84831L41.9078 5.35351C41.4754 5.35351 41.2589 5.65649 41.0423 5.95947C40.9344 6.26245 41.0423 6.66689 41.2589 6.86841L45.0455 10.1011L43.9634 14.8486C43.8555 15.1516 44.0713 15.5561 44.3958 15.7576C44.6123 15.8583 44.7202 15.9598 44.9368 15.9598C45.1534 15.9598 45.2613 15.9598 45.3692 15.859L49.9126 13.4346L54.348 15.859C54.6725 16.0613 55.1056 16.0613 55.4301 15.7583C55.7546 15.5561 55.8625 15.1523 55.8625 14.8493L54.7804 10.1018L58.6755 7.07059C58.8921 6.86837 59 6.66685 59 6.36317C59 5.95943 58.7834 5.65646 58.3511 5.5557L58.3507 5.55573Z" fill="#1686C1"/>
<path d="M77.2254 5.31978L72.6963 4.81776L70.7692 0.502015C70.6731 0.200946 70.2872 0 69.9982 0C69.613 0 69.3233 0.200946 69.2272 0.502015L67.3001 4.81776L62.771 5.31978C62.289 5.31978 62 5.72097 62 6.22298C62 6.52405 62.0961 6.725 62.289 6.92595L65.6621 10.1383L64.6982 14.8559C64.6021 15.157 64.7943 15.5589 65.0834 15.7591C65.2763 15.8592 65.3724 15.96 65.5653 15.96C65.7582 15.96 65.8544 15.96 65.9505 15.8599L69.9978 13.4508L73.9489 15.8599C74.2379 16.0609 74.6237 16.0609 74.9128 15.7598C75.2018 15.5589 75.2979 15.1577 75.2979 14.8566L74.334 10.139L77.7071 6.92665C77.9961 6.7257 78.0923 6.32451 77.9 6.02344C77.9 5.62085 77.611 5.4199 77.2258 5.31978L77.2254 5.31978Z" fill="#1686C1"/>
<path d="M99.9607 6.06022C99.8531 5.75724 99.5293 5.45427 99.0971 5.45427L94.0238 4.84831L91.8651 0.505199C91.7574 0.20222 91.3253 0 91.0015 0C90.57 0 90.2455 0.20222 90.1378 0.505199L87.9792 4.84831L82.9059 5.35351C82.4744 5.35351 82.2583 5.65649 82.0422 5.95947C81.9346 6.26244 82.0422 6.66689 82.2583 6.86841L86.0367 10.1011L84.957 14.8486C84.8493 15.1516 85.0646 15.5561 85.3884 15.7576C85.6045 15.8583 85.7122 15.9598 85.9283 15.9598C86.1444 15.9598 86.2521 15.9598 86.3597 15.859L90.8933 13.4346L95.3192 15.859C95.6429 16.0613 96.0751 16.0613 96.3989 15.7583C96.7227 15.5561 96.8304 15.1523 96.8304 14.8493L95.7506 10.1018L99.529 6.86911C99.9612 6.76765 100.069 6.36321 99.9612 6.06023L99.9607 6.06022Z" fill="#1686C1" fill-opacity="0.3"/>
</svg>
