<svg width="40" height="40" viewBox="0 0 40 40" fill="none" xmlns="http://www.w3.org/2000/svg">
<rect width="40" height="40" rx="4" transform="matrix(-1 0 0 1 40 0)" fill="#CEE6F2"/>
<path d="M10.75 20.5041L10.75 20.5041V20.5C10.75 20.4017 10.7775 20.3044 10.8094 20.227C10.8414 20.1498 10.8879 20.0679 10.9463 20.0048C10.9465 20.0046 10.9467 20.0044 10.9469 20.0042L14.6382 15.9789L14.6381 15.9789L14.6405 15.9764C14.9043 15.6964 15.3403 15.6646 15.6447 15.9457C15.7934 16.0831 15.8596 16.2749 15.8637 16.4533C15.8677 16.6316 15.8105 16.8237 15.6768 16.9687L13.0982 19.7762H28.5385C28.9375 19.7762 29.25 20.1064 29.25 20.4999C29.25 20.8934 28.9375 21.2236 28.5385 21.2236L13.0982 21.2236L15.6768 24.0312C15.6769 24.0312 15.6769 24.0312 15.677 24.0313C15.9374 24.3139 15.915 24.7816 15.6526 25.0464L15.6526 25.0464C15.3645 25.3371 14.8987 25.306 14.6379 25.0206L10.949 20.9979C10.7833 20.829 10.7525 20.6539 10.75 20.5041Z" fill="#08293A" stroke="#08293A" stroke-width="0.5"/>
</svg>
