<svg width="218" height="239" viewBox="0 0 218 239" fill="none" xmlns="http://www.w3.org/2000/svg">
<path d="M98.69 21.7268C96.8503 21.7005 95.0617 22.3894 93.6413 23.6714L24.8672 95.3225C21.8471 98.5055 20.0425 102.828 19.8185 107.414V220.765C19.7987 222.698 20.4803 224.561 21.7133 225.944C22.9463 227.326 24.6298 228.115 26.3932 228.136H170.987C172.75 228.115 174.434 227.326 175.667 225.944C176.899 224.561 177.581 222.698 177.561 220.765V107.414C177.337 102.828 175.533 98.5055 172.513 95.3225L103.739 23.6714C102.318 22.3902 100.53 21.7014 98.69 21.7268V21.7268Z" fill="#A6E5FF"/>
<path fill-rule="evenodd" clip-rule="evenodd" d="M94.4426 30.7059C95.8284 29.4889 97.5571 28.8379 99.3328 28.8646C101.109 28.839 102.84 29.4898 104.228 30.7059L170.881 98.5874C173.797 101.573 175.551 105.676 175.776 110.043V217.425C175.776 221.283 172.924 224.41 169.405 224.41H29.2606C27.5711 224.41 25.951 223.674 24.757 222.364C23.5629 221.054 22.8927 219.277 22.894 217.425V110.059C23.1179 105.692 24.8716 101.588 27.7891 98.6037L94.4426 30.7059V30.7059ZM162.211 108.821L99.3328 44.7906L36.4348 108.843L36.1821 109.098C35.9453 109.497 35.7605 109.931 35.6322 110.385V210.445H163.014V110.364C162.885 109.909 162.7 109.475 162.464 109.076L162.211 108.821V108.821Z" fill="#0D4599"/>
<path d="M102.341 183.818C125.6 183.818 144.455 163.147 144.455 137.648C144.455 112.148 125.6 91.4771 102.341 91.4771C79.0822 91.4771 60.2273 112.148 60.2273 137.648C60.2273 163.147 79.0822 183.818 102.341 183.818Z" fill="#F2A619"/>
<path d="M98.7805 169.484V165.823C91.3616 165.621 84.6997 161.125 81.6006 154.229C81.2454 153.372 81.0561 152.452 81.0427 151.522C80.9996 150.035 81.5917 148.601 82.6648 147.596C83.738 146.591 85.1857 146.114 86.631 146.288C89.0597 146.297 91.2382 147.817 92.1315 150.128C94.1574 154.514 98.7275 157.053 103.428 156.406C109.822 156.364 113.878 153.837 113.878 149.125C113.878 145.244 110.373 143.149 104.066 141.672L98.3574 140.36C87.994 137.963 81.3449 132.207 81.3449 123.662C81.6051 113.965 89.3228 106.218 98.8072 106.133V102.382C98.7458 100.806 99.5326 99.3222 100.858 98.5156C102.183 97.709 103.834 97.709 105.158 98.5156C106.484 99.3222 107.271 100.806 107.209 102.382V106.133C114.511 106.431 120.957 111.095 123.664 118.036C123.966 118.889 124.125 119.788 124.134 120.695C124.134 123.531 122.045 125.276 118.889 125.276C116.453 125.327 114.223 123.886 113.22 121.615C111.474 117.543 107.356 115.092 103.031 115.55C96.9334 115.55 93.3939 118.256 93.3939 122.487C93.3939 126.059 96.8527 128.415 102.481 129.679L107.854 130.943C119.151 133.519 125.632 139.137 125.632 147.82C125.632 158.672 117.19 164.69 107.216 165.864V169.484C107.278 171.06 106.491 172.544 105.165 173.351C103.84 174.157 102.19 174.157 100.864 173.351C99.5395 172.544 98.7522 171.06 98.8142 169.484H98.7805V169.484Z" fill="#F2FAFF"/>
</svg>
